<?xml version="1.0" encoding="UTF-8" standalone="no"?>
<svg
   version="1.0"
   width="2361.4614pt"
   height="2361.4614pt"
   viewBox="0 0 2361.4614 2361.4614"
   preserveAspectRatio="xMidYMid"
   id="svg24"
   sodipodi:docname="DennsBio_RGB.svg"
   xml:space="preserve"
   inkscape:version="1.2.2 (b0a8486541, 2022-12-01)"
   xmlns:inkscape="http://www.inkscape.org/namespaces/inkscape"
   xmlns:sodipodi="http://sodipodi.sourceforge.net/DTD/sodipodi-0.dtd"
   xmlns="http://www.w3.org/2000/svg"
   xmlns:svg="http://www.w3.org/2000/svg"><defs
     id="defs28" /><sodipodi:namedview
     id="namedview26"
     pagecolor="#ffffff"
     bordercolor="#000000"
     borderopacity="0.25"
     inkscape:showpageshadow="2"
     inkscape:pageopacity="0.0"
     inkscape:pagecheckerboard="0"
     inkscape:deskcolor="#d1d1d1"
     inkscape:document-units="pt"
     showgrid="false"
     inkscape:zoom="0.14854401"
     inkscape:cx="3076.5292"
     inkscape:cy="1783.983"
     inkscape:window-width="1600"
     inkscape:window-height="839"
     inkscape:window-x="0"
     inkscape:window-y="30"
     inkscape:window-maximized="1"
     inkscape:current-layer="g22" /><g
     transform="matrix(0.1,0,0,-0.1,-98.638477,2369.2454)"
     fill="#000000"
     stroke="none"
     id="g22"><circle
       style="fill:#a5c715;fill-opacity:1;stroke:none;stroke-width:22.5;stroke-linecap:square;stroke-linejoin:round;stroke-dasharray:60, 60;stroke-opacity:1;stop-color:#000000"
       id="path3637"
       cx="12793.691"
       cy="-11885.147"
       transform="scale(1,-1)"
       r="11807.307" /><g
       id="g4337"
       transform="translate(15862.877,956.7329)"
       style="fill:#3a280b;fill-opacity:1;stroke:none;stroke-width:10;stroke-dasharray:none;stroke-opacity:1"><path
         d="m -9825.3595,16433.138 c -3,-7 -4,-611 -3,-1343 l 3,-1330 550,-3 c 663,-3 828,7 1065,68 235,60 434,180 566,341 203,248 293,590 281,1069 -3,126 -11,242 -22,300 -22,128 -82,300 -136,395 -51,91 -167,218 -253,280 -173,122 -422,199 -731,225 -184,15 -1314,13 -1320,-2 z m 1185,-748 c 91,-15 199,-69 250,-128 99,-111 134,-229 134,-447 0,-219 -38,-345 -133,-442 -87,-90 -196,-123 -413,-123 h -148 v 569 570 l 23,4 c 44,9 224,7 287,-3 z"
         id="path2"
         style="fill:#3a280b;fill-opacity:1;stroke:none;stroke-width:10;stroke-dasharray:none;stroke-opacity:1" /><path
         d="m -2803.3595,16394.138 c -170,-21 -450,-111 -606,-196 -76,-41 -66,-46 -131,78 -22,43 -44,80 -48,83 -4,2 -138,-11 -297,-30 -160,-18 -291,-34 -292,-34 -2,0 -3,-571 -3,-1270 v -1270 h 435 435 v 874 873 l 68,31 c 114,51 179,66 278,66 77,0 98,-3 140,-25 59,-30 97,-82 121,-164 16,-54 18,-139 23,-855 l 5,-795 438,-3 437,-2 v 837 c 0,1013 -8,1152 -72,1353 -63,200 -201,338 -403,403 -126,41 -384,63 -528,46 z"
         id="path4"
         style="fill:#3a280b;fill-opacity:1;stroke:none;stroke-width:10;stroke-dasharray:none;stroke-opacity:1" /><path
         d="m 195.64055,16395.138 c -169.000005,-21 -407,-95 -579,-181 -76,-37 -103,-46 -109,-37 -5,7 -29,51 -55,98 -25,47 -47,86 -48,87 0,1 -133,-13 -294,-32 -162.00005,-19 -296.00005,-35 -298.00005,-35 -1,0 -3,-571 -3,-1270 v -1270 h 440.00005 440 v 876 875 l 63,28 c 103,47 174.999995,65 266.999995,65 160.000005,2 228.000005,-47 267.000005,-189 25,-92 33,-335 33,-997 v -658 h 436 434.99995 l -4,963 c -4,1020 -3,985 -52,1177 -40,159 -137.99995,304 -258.99995,382 -67,43 -206,91 -311,106 -104,16 -291,22 -369,12 z"
         id="path6"
         style="fill:#3a280b;fill-opacity:1;stroke:none;stroke-width:10;stroke-dasharray:none;stroke-opacity:1" /><path
         d="m -5965.3595,16373.138 c -498,-55 -851,-341 -979,-793 -51,-181 -60,-260 -61,-535 0,-202 4,-274 18,-347 103,-542 408,-855 937,-963 298,-61 710,-41 1067,51 110,28 269,84 277,97 4,7 -194,586 -204,596 -3,3 -41,-6 -84,-19 -184,-57 -444,-92 -607,-81 -111,7 -228,35 -302,71 -111,56 -197,173 -213,293 l -7,52 h 746 c 531,0 748,3 753,11 16,27 24,260 14,414 -42,635 -291,1000 -765,1120 -167,43 -394,55 -590,33 z m 320,-692 c 54,-25 94,-65 125,-125 22,-45 50,-174 50,-236 v -45 h -325 -325 v 33 c 0,46 34,177 59,226 60,117 148,169 286,170 64,1 90,-4 130,-23 z"
         id="path8"
         style="fill:#3a280b;fill-opacity:1;stroke:none;stroke-width:10;stroke-dasharray:none;stroke-opacity:1" /><path
         d="m 2544.6405,16378.138 c -68,-6 -207,-33 -280,-55 -286,-83 -495,-280 -562,-528 -26,-95 -23,-317 5,-423 55,-201 201,-372 411,-477 35,-17 157,-67 270,-111 217,-83 271,-113 308,-168 39,-58 22,-135 -37,-166 -109,-57 -448,-25 -704,65 -45,16 -84,26 -87,22 -4,-4 -42,-151 -84,-326 -90,-367 -94,-325 39,-377 116,-45 320,-94 471,-114 173,-23 466,-24 595,-2 335,57 572,192 716,408 85,128 124,265 124,434 0,215 -62,378 -198,518 -115,118 -240,190 -529,300 -225,87 -257,102 -294,145 -26,29 -30,41 -25,70 7,44 39,79 85,92 96,27 331,4 506,-50 50,-15 96,-29 104,-31 10,-3 20,15 33,56 46,144 158,540 158,556 0,24 -210,91 -383,123 -210,39 -469,55 -642,39 z"
         id="path10"
         style="fill:#3a280b;fill-opacity:1;stroke:none;stroke-width:10;stroke-dasharray:none;stroke-opacity:1" /><path
         d="m 3657.6405,13027.138 c -8,-22 -112,-90 -203,-133 -179,-85 -384,-130 -686,-149 -96,-6 -246,-9 -334,-6 -1418,50 -1710.99995,31 -2174.99995,-136 -499,-180 -853,-526 -1035,-1012 -70,-189 -124,-437 -145,-666 -11,-128 -13,-565 -2,-593 6,-14 21,-1 76,68 148,187 344,319 605,409 223.999995,78 388,96 865,96 948.99995,0 1434.99995,55 1841.99995,205 338,125 655,350 845,600 246,322 388,811 371,1278 -2,41 -14,62 -24,39 z"
         id="path12"
         style="fill:#3a280b;fill-opacity:1;stroke:none;stroke-width:10;stroke-dasharray:none;stroke-opacity:1" /><path
         d="m -4400.3595,12726.138 c -30,-58 -77,-323 -90,-514 -39,-588 149,-1057 535,-1329 182,-129 395,-201 716,-244 88,-11 253,-18 569,-24 408,-7 452,-9 523,-28 132,-36 235,-104 283,-188 10,-18 13,-17 32,15 50,83 126,373 153,586 17,130 17,475 1,588 -27,187 -86,364 -164,494 -129,214 -435,397 -774,463 -228,44 -455,45 -944,5 -240,-20 -402,-19 -493,1 -97,21 -222,83 -285,143 -45,41 -54,46 -62,32 z"
         id="path14"
         style="fill:#3a280b;fill-opacity:1;stroke:none;stroke-width:10;stroke-dasharray:none;stroke-opacity:1" /><path
         d="m -9815.3595,12093.138 c -3,-7 -4,-1608 -3,-3558.0002 l 3,-3545 850,-8 c 1149,-12 1670,3 2100,59 751,97 1278,298 1661,633 422,368 644,933 644,1639 0,336 -55,587 -186,843 -71,139 -156,253 -273,369 -175,172 -398,308 -624,381 -58,19 -107,37 -107,40 0,3 10,11 23,16 40,19 185,132 266,209 157,148 284,323 381,528 115,242 169,492.0002 170,787.0002 0,309 -54,570 -163,783 -273,534 -859,768 -2067,826 -329,15 -2669,13 -2675,-2 z m 2520,-1418 c 215,-29 395,-100 488,-193 109,-110 157,-250 157,-462 0,-368.0002 -167,-583.0002 -537,-690.0002 -157,-46 -267,-57 -610,-62 l -323,-5 v 709 c 0,390.0002 3,713.0002 8,717.0002 10,12 721,-1 817,-14 z m 90,-2694.0002 c 285,-40 500,-133 618,-267 56,-63 119,-186 144,-279 25,-93 25,-359 -1,-450 -60,-219 -215,-380 -451,-471 -229,-89 -408,-113 -850,-113 -187,-1 -348,2 -357,6 -17,7 -18,54 -18,796 0,434 3,792 8,797 13,14 786,-2 907,-19 z"
         id="path16"
         style="fill:#3a280b;fill-opacity:1;stroke:none;stroke-width:10;stroke-dasharray:none;stroke-opacity:1" /><path
         d="m 1079.6405,10069.138 c -541.99995,-48 -943.99995,-171.0002 -1288.99995,-394.0002 -497,-322 -809.00005,-844 -920.00005,-1540 -72,-447 -63,-1000 24,-1422 201.00005,-980 783.00005,-1574 1725.00005,-1762 355,-70 826.99995,-82 1231.99995,-30 913,117 1515,551 1816,1309 80,200 142,474 178,780 27,227 25,727 -4,967 -38,317 -107,607 -192,813 -307,740 -872,1142 -1770,1261.0002 -119,16 -682,28 -800,18 z m 465,-1409.0002 c 375,-85 530,-473 512,-1290 -3,-149 -12,-296 -22,-363 -51,-357 -163,-564 -355,-654 -112,-53 -165,-63 -335,-62 -135,0 -158,3 -232,28 -199.99995,66 -332.99995,222 -406.99995,478 -102,354 -97,1098 9,1423 91,278 262,426 527.99995,455 88,10 221,3 302,-15 z"
         id="path18"
         style="fill:#3a280b;fill-opacity:1;stroke:none;stroke-width:10;stroke-dasharray:none;stroke-opacity:1" /><path
         d="m -2435.3595,9609.1378 c -459,-74 -1275,-204 -1286,-204 -5,0 -9,-914 -9,-2210 v -2210 h 840 840 v 2340 2340 l -27,-1 c -16,-1 -176,-25 -358,-55 z"
         id="path20"
         style="fill:#3a280b;fill-opacity:1;stroke:none;stroke-width:10;stroke-dasharray:none;stroke-opacity:1" /></g></g></svg>
